<?xml version="1.0" encoding="iso-8859-1"?>
<!-- Generator: Adobe Illustrator 19.0.0, SVG Export Plug-In . SVG Version: 6.00 Build 0)  -->
<svg version="1.1" id="Layer_1" xmlns="http://www.w3.org/2000/svg" xmlns:xlink="http://www.w3.org/1999/xlink" x="0px" y="0px"
	 viewBox="0 0 297 297" style="enable-background:new 0 0 297 297;" xml:space="preserve">
<g>
	<path style="fill:#8b33c5;" d="M210.948,174.042H86.052c-6.93,0-12.958,4.748-14.582,11.485l-20.601,85.458
		c-2.275,9.436,4.876,18.515,14.582,18.515h166.098c9.706,0,16.857-9.079,14.582-18.515l-20.601-85.458
		C223.906,178.79,217.878,174.042,210.948,174.042z"/>
	<circle style="fill:#4672c4;" cx="148.5" cy="62.821" r="55.321"/>
	<g>
		<circle style="fill:#4672c4;" cx="148.5" cy="209.442" r="12.815"/>
		<g>
			<circle style="fill:#4672c4;" cx="148.5" cy="254.1" r="12.815"/>
			<g>
				<path style="fill:#22313F;" d="M253.422,269.227l-20.601-85.458c-2.445-10.143-11.439-17.227-21.873-17.227H86.052
					c-10.434,0-19.429,7.084-21.873,17.227l-20.601,85.458C40.166,283.375,50.88,297,65.45,297h166.099
					C246.101,297,256.838,283.395,253.422,269.227z M231.549,282H65.45c-4.851,0-8.429-4.536-7.291-9.257l20.601-85.459
					c0.815-3.381,3.814-5.742,7.292-5.742h124.896c3.478,0,6.477,2.361,7.292,5.743l20.601,85.458
					C239.977,277.46,236.404,282,231.549,282z"/>
				<path style="fill:#22313F;" d="M148.5,125.642c34.64,0,62.821-28.181,62.821-62.821S183.139,0,148.5,0
					S85.679,28.181,85.679,62.821S113.86,125.642,148.5,125.642z M148.5,15c26.369,0,47.821,21.452,47.821,47.821
					s-21.452,47.821-47.821,47.821s-47.821-21.452-47.821-47.821S122.131,15,148.5,15z"/>
				<path style="fill:#22313F;" d="M148.5,189.127c-11.202,0-20.315,9.113-20.315,20.315s9.113,20.315,20.315,20.315
					s20.315-9.113,20.315-20.315S159.702,189.127,148.5,189.127z M148.5,214.757c-2.931,0-5.315-2.384-5.315-5.315
					s2.384-5.315,5.315-5.315s5.315,2.384,5.315,5.315S151.431,214.757,148.5,214.757z"/>
				<path style="fill:#22313F;" d="M148.5,233.785c-11.202,0-20.315,9.113-20.315,20.315s9.113,20.315,20.315,20.315
					s20.315-9.113,20.315-20.315C168.815,242.898,159.702,233.785,148.5,233.785z M148.5,259.415c-2.931,0-5.315-2.384-5.315-5.315
					s2.384-5.315,5.315-5.315s5.315,2.384,5.315,5.315S151.431,259.415,148.5,259.415z"/>
			</g>
		</g>
	</g>
</g>
<g>
</g>
<g>
</g>
<g>
</g>
<g>
</g>
<g>
</g>
<g>
</g>
<g>
</g>
<g>
</g>
<g>
</g>
<g>
</g>
<g>
</g>
<g>
</g>
<g>
</g>
<g>
</g>
<g>
</g>
</svg>
